<svg width="18" height="18" viewBox="0 0 18 18" fill="none" xmlns="http://www.w3.org/2000/svg">
<path d="M8.99606 4.90698C9.65396 4.90698 10.4787 4.44854 10.9698 3.83728C11.4145 3.28333 11.7389 2.5097 11.7389 1.73608C11.7389 1.63102 11.7296 1.52596 11.7111 1.44C10.979 1.46866 10.0987 1.9462 9.57057 2.58611C9.15359 3.07321 8.77368 3.83728 8.77368 4.62045C8.77368 4.73506 8.79221 4.84968 8.80147 4.88788C8.84781 4.89743 8.92193 4.90698 8.99606 4.90698ZM6.67952 16.4636C7.57834 16.4636 7.97678 15.8428 9.09799 15.8428C10.2377 15.8428 10.4879 16.4445 11.4887 16.4445C12.4709 16.4445 13.1288 15.5085 13.7496 14.5916C14.4446 13.541 14.7318 12.5095 14.7504 12.4617C14.6855 12.4426 12.8045 11.6499 12.8045 9.42456C12.8045 7.49528 14.2871 6.62614 14.3705 6.55929C13.3882 5.10755 11.8964 5.06935 11.4887 5.06935C10.386 5.06935 9.48717 5.75701 8.92193 5.75701C8.31037 5.75701 7.50421 5.10755 6.54979 5.10755C4.73362 5.10755 2.88965 6.65479 2.88965 9.57737C2.88965 11.392 3.57535 13.3118 4.41857 14.5534C5.14133 15.604 5.77143 16.4636 6.67952 16.4636Z" fill="white"/>
</svg>
