<svg width="100%" height="100%" viewBox="0 0 24 24" fill="none" xmlns="http://www.w3.org/2000/svg">
<mask id="mask0_349_2602" style="mask-type:alpha" maskUnits="userSpaceOnUse" x="3" y="3" width="18" height="18">
<path fill-rule="evenodd" clip-rule="evenodd" d="M3 3H21V20.099H3V3Z" fill="none"/>
</mask>
<g mask="url(#mask0_349_2602)">
<path fill-rule="evenodd" clip-rule="evenodd" d="M7.90755 4.24091C5.38192 4.24091 4.30435 5.46198 4.30435 8.32189V14.7739C4.30435 17.4079 5.8333 18.8582 8.60941 18.8582H15.3775C18.1466 18.8582 19.6712 17.4079 19.6712 14.7739V14.7714L19.6956 10.6639C19.6956 7.852 18.6815 6.75585 16.0767 6.75585H13.6154C12.7901 6.75502 12.0021 6.38026 11.5064 5.75318L10.7124 4.74886C10.4628 4.43035 10.0636 4.24173 9.6461 4.24091H7.90755ZM15.3774 20.0991H8.60937C5.14967 20.0991 2.99976 18.0582 2.99976 14.7739V8.32191C2.99976 4.79024 4.65133 3 7.90752 3H9.64693C10.474 3.00083 11.262 3.37641 11.756 4.00432L12.5483 5.00699C12.7996 5.32467 13.1988 5.51411 13.6163 5.51494H16.0767C19.4355 5.51494 21.0001 7.15213 21.0001 10.6673L20.9758 14.7764C20.9749 18.059 18.8302 20.0991 15.3774 20.0991Z" fill="none"/>
</g>
<path fill-rule="evenodd" clip-rule="evenodd" d="M15.7984 14.3442H8.20148C7.84142 14.3442 7.54919 14.0662 7.54919 13.7237C7.54919 13.3812 7.84142 13.1033 8.20148 13.1033H15.7984C16.1584 13.1033 16.4507 13.3812 16.4507 13.7237C16.4507 14.0662 16.1584 14.3442 15.7984 14.3442Z" fill="none"/>
</svg>
