<svg width="24" height="24" viewBox="0 0 24 24" fill="none" xmlns="http://www.w3.org/2000/svg">
<path fill-rule="evenodd" clip-rule="evenodd" d="M12 3.75C7.44365 3.75 3.75 7.44365 3.75 12C3.75 16.5563 7.44365 20.25 12 20.25C16.5563 20.25 20.25 16.5563 20.25 12C20.25 7.44365 16.5563 3.75 12 3.75ZM2.25 12C2.25 6.61522 6.61522 2.25 12 2.25C17.3848 2.25 21.75 6.61522 21.75 12C21.75 17.3848 17.3848 21.75 12 21.75C6.61522 21.75 2.25 17.3848 2.25 12Z" fill="#424242"/>
<path fill-rule="evenodd" clip-rule="evenodd" d="M10.3175 8.12328C10.5946 7.8154 11.0688 7.79044 11.3767 8.06754L15.1267 11.4425C15.2848 11.5848 15.375 11.7874 15.375 12C15.375 12.2126 15.2848 12.4152 15.1267 12.5575L11.3767 15.9325C11.0688 16.2096 10.5946 16.1846 10.3175 15.8767C10.0404 15.5688 10.0654 15.0946 10.3733 14.8175L13.5039 12L10.3733 9.18248C10.0654 8.90538 10.0404 8.43117 10.3175 8.12328Z" fill="#424242"/>
</svg>
