<svg width="100%" height="100%" viewBox="0 0 24 24" fill="none" xmlns="http://www.w3.org/2000/svg">
<g id="Iconly/Light/Delete">
<g id="Delete">
<path id="Stroke 1" d="M19.3249 9.46826C19.3249 9.46826 18.7819 16.2033 18.4669 19.0403C18.3169 20.3953 17.4799 21.1893 16.1089 21.2143C13.4999 21.2613 10.8879 21.2643 8.27991 21.2093C6.96091 21.1823 6.13791 20.3783 5.99091 19.0473C5.67391 16.1853 5.13391 9.46826 5.13391 9.46826" stroke="currentColor" stroke-width="1.5" stroke-linecap="round" stroke-linejoin="round"/>
<path id="Stroke 3" d="M20.7082 6.23975H3.75018" stroke="currentColor" stroke-width="1.5" stroke-linecap="round" stroke-linejoin="round"/>
<path id="Stroke 5" d="M17.4406 6.23973C16.6556 6.23973 15.9796 5.68473 15.8256 4.91573L15.5826 3.69973C15.4326 3.13873 14.9246 2.75073 14.3456 2.75073H10.1126C9.53358 2.75073 9.02558 3.13873 8.87558 3.69973L8.63258 4.91573C8.47858 5.68473 7.80258 6.23973 7.01758 6.23973" stroke="currentColor" stroke-width="1.5" stroke-linecap="round" stroke-linejoin="round"/>
</g>
</g>
</svg>
