<svg width="100%" height="100%" viewBox="0 0 20 20" fill="none" xmlns="http://www.w3.org/2000/svg">
<path d="M14.1471 3.07525L14.6774 3.60558L14.1471 3.07525ZM11.1551 6.06727L11.6854 6.5976L11.1551 6.06727ZM16.9247 5.85282L16.3943 5.32249V5.32249L16.9247 5.85282ZM13.9326 8.84484L13.4023 8.31451H13.4023L13.9326 8.84484ZM9.21747 11.5145L9.39937 12.2421H9.39937L9.21747 11.5145ZM8.63918 11.6591L8.82108 12.3867H8.82108L8.63918 11.6591ZM8.34082 11.3607L9.06843 11.5426L9.06843 11.5426L8.34082 11.3607ZM8.48539 10.7824L7.75779 10.6005V10.6005L8.48539 10.7824ZM13.6168 2.54492L10.6248 5.53694L11.6854 6.5976L14.6774 3.60558L13.6168 2.54492ZM16.3943 5.32249L13.4023 8.31451L14.463 9.37517L17.455 6.38315L16.3943 5.32249ZM9.03557 10.7869L8.45728 10.9315L8.82108 12.3867L9.39937 12.2421L9.03557 10.7869ZM9.06843 11.5426L9.213 10.9643L7.75779 10.6005L7.61321 11.1788L9.06843 11.5426ZM8.45728 10.9315C8.82637 10.8392 9.1607 11.1735 9.06843 11.5426L7.61322 11.1788C7.43085 11.9083 8.09161 12.5691 8.82108 12.3867L8.45728 10.9315ZM13.4023 8.31451C12.1977 9.51914 10.6883 10.3737 9.03557 10.7869L9.39937 12.2421C11.3159 11.763 13.0661 10.772 14.463 9.37517L13.4023 8.31451ZM10.6248 5.53694C9.22788 6.93381 8.23691 8.68406 7.75779 10.6005L9.213 10.9643C9.62619 9.31161 10.4808 7.80223 11.6854 6.5976L10.6248 5.53694ZM15.5359 1.75C14.8161 1.75 14.1258 2.03594 13.6168 2.54492L14.6774 3.60558C14.9051 3.37791 15.2139 3.25 15.5359 3.25V1.75ZM16.7499 4.46403C16.7499 4.78602 16.622 5.09481 16.3943 5.32249L17.455 6.38315C17.964 5.87417 18.2499 5.18384 18.2499 4.46403H16.7499ZM18.2499 4.46403C18.2499 2.96512 17.0348 1.75 15.5359 1.75V3.25C16.2064 3.25 16.7499 3.79354 16.7499 4.46403H18.2499ZM16.7998 5.02898C16.4898 5.13231 15.965 4.99658 15.4841 4.51577C15.0033 4.03496 14.8676 3.51008 14.9709 3.2001L13.5479 2.72576C13.1883 3.80456 13.747 4.89992 14.4235 5.57643C15.1 6.25294 16.1954 6.8116 17.2742 6.452L16.7998 5.02898Z" fill="currentColor"/>
<path d="M2.79406 12.5413L2.06388 12.7126L2.79406 12.5413ZM2.79406 7.45869L3.52425 7.62997L2.79406 7.45869ZM12.5413 17.2059L12.37 16.4758L12.5413 17.2059ZM7.4587 17.2059L7.62997 16.4758H7.62997L7.4587 17.2059ZM17.2059 12.5413L17.9361 12.7126L17.2059 12.5413ZM7.45869 2.79406L7.62997 3.52424L7.45869 2.79406ZM10 3.25C10.4142 3.25 10.75 2.91421 10.75 2.5C10.75 2.08579 10.4142 1.75 10 1.75V3.25ZM18.25 9.99998C18.25 9.58576 17.9142 9.24998 17.5 9.24998C17.0858 9.24998 16.75 9.58577 16.75 9.99998L18.25 9.99998ZM3.52425 12.37C3.15858 10.8112 3.15858 9.18883 3.52425 7.62997L2.06388 7.28741C1.64537 9.07159 1.64537 10.9284 2.06388 12.7126L3.52425 12.37ZM12.37 16.4758C10.8112 16.8414 9.18884 16.8414 7.62997 16.4758L7.28742 17.9361C9.07159 18.3546 10.9284 18.3546 12.7126 17.9361L12.37 16.4758ZM7.62997 16.4758C5.59277 15.9979 4.00211 14.4072 3.52425 12.37L2.06388 12.7126C2.67185 15.3044 4.69558 17.3282 7.28742 17.9361L7.62997 16.4758ZM12.7126 17.9361C15.3044 17.3282 17.3282 15.3044 17.9361 12.7126L16.4758 12.37C15.9979 14.4072 14.4072 15.9979 12.37 16.4758L12.7126 17.9361ZM7.28742 2.06388C4.69558 2.67185 2.67185 4.69558 2.06388 7.28741L3.52425 7.62997C4.00211 5.59277 5.59277 4.00211 7.62997 3.52424L7.28742 2.06388ZM7.62997 3.52424C8.4094 3.34142 9.2047 3.25 10 3.25V1.75C9.08975 1.75 8.1795 1.85463 7.28742 2.06388L7.62997 3.52424ZM16.75 9.99998C16.75 10.7953 16.6586 11.5906 16.4758 12.37L17.9361 12.7126C18.1454 11.8205 18.25 10.9102 18.25 9.99998L16.75 9.99998Z" fill="currentColor"/>
</svg>
