<svg width="100%" height="100%" viewBox="0 0 24 24" fill="#currentColor" stroke-width="0.1" xmlns="http://www.w3.org/2000/svg">
<path fill-rule="evenodd" clip-rule="evenodd" d="M9.92163 3C10.3358 3 10.6716 3.33579 10.6716 3.75V9.54875C10.6699 9.81201 10.6005 10.0704 10.4703 10.2992L10.4616 10.314L4.50002 20.25H19.8432L13.8816 10.314L13.873 10.2992C13.7427 10.0704 13.6734 9.81202 13.6716 9.54875L13.6716 9.54375L13.6716 3.75C13.6716 3.33579 14.0074 3 14.4216 3C14.8358 3 15.1716 3.33579 15.1716 3.75V9.53963C15.1718 9.54472 15.173 9.54972 15.1751 9.55432L21.1313 19.4812C21.2666 19.708 21.3397 19.9664 21.3431 20.2304C21.3466 20.4945 21.2803 20.7547 21.1509 20.9849C21.0215 21.2151 20.8337 21.4071 20.6064 21.5414C20.3791 21.6757 20.1203 21.7477 19.8563 21.75L19.8498 21.75L4.487 21.75C4.22296 21.7477 3.9642 21.6757 3.73688 21.5414C3.50955 21.4071 3.32171 21.2151 3.19235 20.9849C3.06298 20.7547 2.99668 20.4945 3.00013 20.2304C3.00358 19.9664 3.07667 19.708 3.212 19.4812L3.21288 19.4798L9.16814 9.55432C9.17028 9.54972 9.17147 9.54473 9.17163 9.53965V3.75C9.17163 3.33579 9.50741 3 9.92163 3Z" />
<path fill-rule="evenodd" clip-rule="evenodd" d="M7.67163 3.75C7.67163 3.33579 8.00742 3 8.42163 3H15.9216C16.3358 3 16.6716 3.33579 16.6716 3.75C16.6716 4.16421 16.3358 4.5 15.9216 4.5H8.42163C8.00742 4.5 7.67163 4.16421 7.67163 3.75Z" />
<path fill-rule="evenodd" clip-rule="evenodd" d="M11.8362 17.1708C8.8959 15.7053 7.30757 16.2162 6.48541 16.8224C6.15201 17.0682 5.68248 16.9972 5.43667 16.6638C5.19086 16.3304 5.26186 15.8609 5.59526 15.615C6.98553 14.59 9.20325 14.1822 12.5062 15.8287L12.5077 15.8295C14.0959 16.6258 15.2859 16.8325 16.1581 16.7735C17.0206 16.7152 17.6259 16.3937 18.0512 16.0319C18.3666 15.7635 18.84 15.8016 19.1084 16.1171C19.3768 16.4325 19.3387 16.9059 19.0232 17.1743C18.3797 17.7218 17.4757 18.1878 16.2593 18.2701C15.0527 18.3517 13.5946 18.0523 11.8362 17.1708Z" />
</svg>
