<svg width="100%" height="100%" viewBox="0 0 24 24" fill="none" xmlns="http://www.w3.org/2000/svg">
<path fill-rule="evenodd" clip-rule="evenodd" d="M13.305 5.46252H16.068C19.389 5.46252 21.009 7.14686 21 10.601V14.7648C21 18.0651 18.858 20.1 15.375 20.1H8.61599C5.151 20.1 3 18.0651 3 14.7563V8.3353C3 4.79563 4.656 3.00015 7.92299 3.00015H9.34499C10.1829 2.9916 10.965 3.35924 11.478 3.98339L12.27 4.98373C12.522 5.28298 12.9 5.46252 13.305 5.46252ZM7.83296 14.363H16.1669C16.5359 14.363 16.8329 14.0723 16.8329 13.7217C16.8329 13.3626 16.5359 13.0805 16.1669 13.0805H7.83296C7.45496 13.0805 7.15796 13.3626 7.15796 13.7217C7.15796 14.0723 7.45496 14.363 7.83296 14.363Z" fill="none"/>
</svg>
