<svg width="100%" height="100%" viewBox="0 0 24 24" fill="none" xmlns="http://www.w3.org/2000/svg">
<path d="M11.0369 19.4123L11.0362 19.4116C8.70885 17.2392 6.81693 15.4723 5.50084 13.816C4.19088 12.1674 3.5 10.6868 3.5 9.09537C3.5 6.50436 5.46769 4.5 7.95 4.5C9.35912 4.5 10.7236 5.17774 11.6147 6.25495L12 6.72065L12.3853 6.25495C13.2764 5.17774 14.6409 4.5 16.05 4.5C18.5323 4.5 20.5 6.50436 20.5 9.09537C20.5 10.6868 19.8091 12.1674 18.4991 13.8173C17.1846 15.4726 15.296 17.2393 12.9728 19.4125L12.9645 19.4202L12.9634 19.4212L12.0013 20.316L11.0369 19.4123Z" stroke="#595FE4"/>
</svg>
