<svg width="23" height="23" viewBox="0 0 23 23" fill="none" xmlns="http://www.w3.org/2000/svg">
<path d="M11.4411 12.1967C11.9473 12.1967 12.3577 11.7863 12.3577 11.28C12.3577 10.7737 11.9473 10.3633 11.4411 10.3633C10.9348 10.3633 10.5244 10.7737 10.5244 11.28C10.5244 11.7863 10.9348 12.1967 11.4411 12.1967Z" stroke="#757575" stroke-width="2" stroke-linecap="round" stroke-linejoin="round"/>
<path d="M17.8578 12.1967C18.3641 12.1967 18.7745 11.7863 18.7745 11.28C18.7745 10.7737 18.3641 10.3633 17.8578 10.3633C17.3516 10.3633 16.9412 10.7737 16.9412 11.28C16.9412 11.7863 17.3516 12.1967 17.8578 12.1967Z" stroke="#757575" stroke-width="2" stroke-linecap="round" stroke-linejoin="round"/>
<path d="M5.02458 12.1967C5.53084 12.1967 5.94124 11.7863 5.94124 11.28C5.94124 10.7737 5.53084 10.3633 5.02458 10.3633C4.51832 10.3633 4.10791 10.7737 4.10791 11.28C4.10791 11.7863 4.51832 12.1967 5.02458 12.1967Z" stroke="#757575" stroke-width="2" stroke-linecap="round" stroke-linejoin="round"/>
</svg>
