<svg width="24" height="24" viewBox="0 0 24 24" fill="none" xmlns="http://www.w3.org/2000/svg">
<path fill-rule="evenodd" clip-rule="evenodd" d="M12.8889 4.88889C12.8889 4.39797 12.4909 4 12 4C11.5091 4 11.1111 4.39797 11.1111 4.88889V11.1111H4.88889C4.39797 11.1111 4 11.5091 4 12C4 12.4909 4.39797 12.8889 4.88889 12.8889H11.1111V19.1111C11.1111 19.602 11.5091 20 12 20C12.4909 20 12.8889 19.602 12.8889 19.1111V12.8889H19.1111C19.602 12.8889 20 12.4909 20 12C20 11.5091 19.602 11.1111 19.1111 11.1111H12.8889V4.88889Z" fill="none"/>
</svg>
