<svg width="15" height="50" viewBox="0 0 15 50" fill="none" xmlns="http://www.w3.org/2000/svg">
<path d="M6.976 12.224C10.304 12.224 12.864 9.6 12.864 6.08C12.864 2.624 10.304 0 6.976 0C3.584 0 1.152 2.624 1.152 6.08C1.152 9.6 3.584 12.224 6.976 12.224ZM1.92 49.28C9.728 46.72 14.016 41.024 14.016 33.472C14.016 27.712 11.584 24.256 7.296 24.256C3.904 24.256 1.152 26.432 1.152 29.824C1.152 33.344 3.968 35.392 7.04 35.392C8.448 35.392 9.728 34.944 10.688 33.984L7.36 28.48L7.68 35.136C7.744 38.912 4.992 42.304 0 44.16L1.92 49.28Z" fill="#595FE4"/>
</svg>
