<svg width="100%" height="100%" viewBox="0 0 2000 2000" fill="none" xmlns="http://www.w3.org/2000/svg">
  <path d="M374.17 587.67C374.158 563.887 378.728 540.324 387.63 518.27C396.61 495.883 408.943 476.86 424.63 461.2C440.293 445.558 458.499 432.688 478.47 423.14C498.421 413.489 520.307 408.506 542.47 408.57C563.417 408.57 583.98 413.427 604.16 423.14C624.134 432.683 642.34 445.553 658 461.2C673.7 476.873 686.033 495.897 695 518.27C703.911 540.322 708.482 563.886 708.46 587.67C708.557 611.115 703.981 634.344 695 656C686.509 676.939 673.93 695.976 658 712C642.325 727.626 624.109 740.475 604.13 750C583.95 759.7 563.387 764.547 542.44 764.54C520.28 764.613 498.393 759.641 478.44 750C458.475 740.467 440.27 727.618 424.6 712C408.68 695.967 396.104 676.932 387.6 656C378.639 634.339 374.074 611.112 374.17 587.67ZM1627.7 641.4C1620.58 664.604 1609.15 686.257 1594 705.22C1579.46 723.536 1561.07 738.434 1540.14 748.86C1519.19 759.307 1498.98 764.53 1479.52 764.53C1460.06 764.53 1440.23 760.43 1420.04 752.23C1399.86 744.035 1381.54 731.852 1366.18 716.41C1350.13 700.241 1337.19 681.259 1328.01 660.41C1318.28 638.77 1313.41 615.26 1313.41 589.88C1313.41 524.213 1335.49 474.213 1379.64 439.88C1423.79 405.547 1477.29 388.383 1540.14 388.39C1623.88 388.39 1699.71 412.65 1767.63 461.17C1835.55 509.69 1886.66 584.69 1920.97 686.17L1838.14 746.61C1793.38 630.203 1726.97 572 1638.92 572H1632.17C1636.73 595.129 1635.19 619.047 1627.7 641.4Z" fill="#595FE4"/>
  <path d="M1304.86 1605.58C1245.24 1580.96 1188.22 1544.67 1135.08 1498.01C1080.65 1451.36 1036.59 1395.63 1000.3 1330.83C967.9 1394.33 925.13 1450.06 870.7 1496.72C818.659 1543.95 759.628 1582.86 695.7 1612.06L624.42 1514.86C668.48 1494.13 708.66 1468.21 746.24 1439.69C782.327 1412.67 814.97 1381.33 843.44 1346.38C869.36 1312.69 891.39 1276.38 906.94 1234.92C921.2 1196.04 928.94 1151.98 928.94 1105.32V918.7H1070.2V1100.14C1070.2 1146.8 1077.98 1190.86 1094.83 1231.04C1110.38 1272.51 1131.11 1311.39 1159.63 1345.04C1186.32 1380.77 1218.72 1411.86 1255.53 1437.04C1291.82 1465.55 1331.99 1488.88 1376.06 1509.62L1304.86 1605.58Z" fill="#595FE4"/>
</svg>
