<svg width="24" height="24" viewBox="0 0 24 24" fill="none" xmlns="http://www.w3.org/2000/svg">
<path d="M8.20717 2.41143L8.55685 1.74794V1.74794L8.20717 2.41143ZM20.0174 8.63578L19.6678 9.29927L20.0174 8.63578ZM20.0125 15.3938L20.3612 16.0578L20.0125 15.3938ZM8.20853 21.5912L7.85989 20.9271L8.20853 21.5912ZM3.18561 17.0575L2.46819 16.8389L3.18561 17.0575ZM3.17815 6.93854L3.89581 6.72066H3.89581L3.17815 6.93854ZM8.48408 12.7699C8.89829 12.7699 9.23408 12.4341 9.23408 12.0199C9.23408 11.6057 8.89829 11.2699 8.48408 11.2699V12.7699ZM7.85749 3.07493L19.6678 9.29927L20.3671 7.97229L8.55685 1.74794L7.85749 3.07493ZM19.6639 14.7297L7.85989 20.9271L8.55717 22.2552L20.3612 16.0578L19.6639 14.7297ZM3.90304 17.2761L5.43823 12.2386L4.00338 11.8013L2.46819 16.8389L3.90304 17.2761ZM5.43846 11.802L3.89581 6.72066L2.4605 7.15641L4.00315 12.2378L5.43846 11.802ZM4.72081 12.7699H8.48408V11.2699H4.72081V12.7699ZM7.85989 20.9271C6.74767 21.5111 5.58519 21.2577 4.76942 20.5214C3.94977 19.7815 3.50809 18.5721 3.90304 17.2761L2.46819 16.8389C1.89289 18.7267 2.54089 20.5305 3.76437 21.6349C4.99173 22.7427 6.82583 23.1642 8.55717 22.2552L7.85989 20.9271ZM19.6678 9.29927C21.7793 10.4121 21.7768 13.6204 19.6639 14.7297L20.3612 16.0578C23.5437 14.3869 23.5469 9.64812 20.3671 7.97229L19.6678 9.29927ZM8.55685 1.74794C6.8265 0.835995 4.99145 1.25493 3.76245 2.36127C2.53733 3.46412 1.88706 5.26755 2.4605 7.15641L3.89581 6.72066C3.50213 5.4239 3.94535 4.21486 4.76601 3.47611C5.58279 2.74084 6.74581 2.48904 7.85749 3.07493L8.55685 1.74794Z" fill="none"/>
</svg>
